<svg width="80" height="120" viewBox="0 0 80 120" fill="none" xmlns="http://www.w3.org/2000/svg">
<path d="M59.1079 66.4815L65.5926 41.1938H56.4361L53.1926 53.8377H51.604L54.8475 41.1938H45.6899L40.2848 62.2673H27.9511L29.0319 58.0531H19.8743L16.7207 70.3512H38.212L37.1312 74.5654H46.2889L49.5312 61.9216H51.1198L47.8775 74.5654L57.3914 74.5678L55.2299 82.9998L64.3887 82.9951L68.6218 66.4862L59.1079 66.4815Z" fill="#EFEEDF"/>
<path d="M20.2777 56.4765H29.4341L31.2808 49.278H32.8694L29.942 60.6907H39.0996L44.1069 41.1657L14.5258 37L11.377 49.278H22.1232L20.2777 56.4765Z" fill="#EFEEDF"/>
<path d="M16.1063 75.8359H19.1249C19.6434 75.8359 20.0731 75.9377 20.4164 76.1413C20.7585 76.345 20.9905 76.6314 21.1125 77.0019C21.2332 77.3725 21.2309 77.8022 21.1054 78.2899C20.9787 78.7811 20.7585 79.2085 20.4448 79.5743C20.1311 79.9401 19.7452 80.2218 19.2895 80.4195C18.8337 80.6172 18.3377 80.7154 17.8038 80.7154H15.9868L16.3561 79.2843H17.8074C18.0382 79.2843 18.2466 79.244 18.4348 79.1623C18.623 79.0806 18.7793 78.9646 18.9036 78.8167C19.0279 78.6687 19.1166 78.4923 19.1687 78.2899C19.2208 78.0875 19.2232 77.9123 19.1746 77.7631C19.1261 77.614 19.029 77.5015 18.8823 77.4246C18.7355 77.3476 18.5461 77.3085 18.3164 77.3085H17.5908L16.1726 82.8142H14.3105L16.1087 75.8359H16.1063Z" fill="#EFEEDF"/>
<path d="M22.5412 82.8152H20.6934L22.4915 75.8369H24.3394L22.5412 82.8152Z" fill="#EFEEDF"/>
<path d="M26.6359 80.6928C26.4122 80.7046 26.2334 80.7165 26.1008 80.7307C25.9327 80.7484 25.7859 80.8064 25.6616 80.9047C25.5373 81.0029 25.4569 81.1237 25.419 81.2693C25.3929 81.3687 25.3953 81.4551 25.4273 81.5262C25.458 81.5972 25.5137 81.6516 25.593 81.686C25.6723 81.7215 25.7682 81.7392 25.8818 81.7392C26.0381 81.7392 26.192 81.7073 26.3435 81.6422C26.495 81.5771 26.6252 81.4871 26.7365 81.3699C26.8466 81.2527 26.9224 81.1166 26.9626 80.9591L27.3935 79.2356C27.4184 79.1397 27.4136 79.0568 27.3817 78.987C27.3485 78.9171 27.2929 78.8639 27.2112 78.8284C27.1307 78.7928 27.0301 78.7751 26.9105 78.7751C26.7815 78.7751 26.6655 78.7928 26.5613 78.8295C26.4571 78.8662 26.366 78.9207 26.2855 78.9941C26.205 79.0675 26.1446 79.1586 26.1032 79.2652H24.3962C24.5051 78.9396 24.6874 78.6437 24.9443 78.3773C25.2012 78.111 25.5255 77.9003 25.9185 77.7452C26.3115 77.5913 26.759 77.5132 27.2621 77.5132C27.7427 77.5132 28.1487 77.5866 28.4778 77.7334C28.8069 77.8802 29.0378 78.0849 29.1692 78.3466C29.3005 78.6082 29.3242 78.9065 29.2378 79.2379L28.3157 82.8153H26.585L26.7744 82.079H26.733C26.5802 82.2696 26.4145 82.4246 26.2346 82.5442C26.0558 82.6638 25.8617 82.7525 25.6545 82.8117C25.4474 82.8709 25.2237 82.9005 24.9845 82.9005C24.6412 82.9005 24.3548 82.8437 24.1251 82.7312C23.8943 82.6188 23.7357 82.4483 23.6492 82.2187C23.5616 81.989 23.5628 81.7049 23.6492 81.3663C23.7889 80.823 24.0718 80.4193 24.4968 80.1554C24.9218 79.8902 25.4355 79.7399 26.0369 79.7043C26.1695 79.6972 26.347 79.6901 26.566 79.6807C26.7862 79.6712 26.978 79.6641 27.1402 79.657C27.2147 79.6546 27.2881 79.6523 27.3592 79.6499L27.1023 80.6715C27.0123 80.6738 26.8549 80.6809 26.6312 80.6916L26.6359 80.6928Z" fill="#EFEEDF"/>
<path d="M30.3941 82.575C30.0401 82.3501 29.8057 82.0341 29.6933 81.628C29.5808 81.2208 29.5927 80.7497 29.7312 80.2134C29.8697 79.6772 30.0993 79.206 30.4225 78.8C30.7445 78.394 31.141 78.0779 31.611 77.853C32.0809 77.6281 32.5959 77.5156 33.1558 77.5156C33.6648 77.5156 34.0862 77.6068 34.4189 77.7879C34.7515 77.9702 34.9788 78.2271 35.1007 78.5621C35.2215 78.8959 35.2274 79.2854 35.1173 79.7305H33.4008C33.4316 79.5482 33.4293 79.3943 33.3937 79.2664C33.3582 79.1386 33.2919 79.0427 33.1949 78.9788C33.0978 78.9137 32.9759 78.8817 32.8314 78.8817C32.6563 78.8817 32.4905 78.9314 32.3354 79.0297C32.1804 79.1279 32.0407 79.2759 31.9176 79.4724C31.7945 79.6689 31.6962 79.9116 31.6216 80.1992C31.5471 80.4881 31.521 80.7307 31.5423 80.9272C31.5648 81.1237 31.6276 81.2717 31.7317 81.3723C31.8359 81.4718 31.9756 81.5227 32.1508 81.5227C32.2964 81.5227 32.4337 81.4895 32.5639 81.4221C32.6941 81.3546 32.8101 81.2587 32.9131 81.132C33.0161 81.0066 33.0966 80.8538 33.157 80.6739H34.8734C34.748 81.1261 34.5396 81.5203 34.2472 81.8565C33.956 82.1927 33.5962 82.4531 33.17 82.6366C32.7438 82.8201 32.2763 82.9124 31.7672 82.9124C31.205 82.9124 30.7468 82.8 30.3929 82.575H30.3941Z" fill="#EFEEDF"/>
<path d="M36.2512 82.5895C35.8985 82.374 35.6641 82.0639 35.5516 81.659C35.438 81.2542 35.4534 80.7736 35.5978 80.2136C35.7351 79.6798 35.9671 79.2074 36.2927 78.7979C36.6182 78.3883 37.0112 78.0722 37.4729 77.8485C37.9346 77.6259 38.4341 77.5146 38.9703 77.5146C39.4959 77.5146 39.928 77.6212 40.2678 77.8354C40.6075 78.0485 40.8336 78.3575 40.9461 78.7612C41.0585 79.1648 41.0431 79.6431 40.9011 80.1971L40.791 80.6268H36.0855L36.3471 79.6111H39.3456C39.3835 79.4548 39.3799 79.3152 39.3349 79.192C39.2888 79.0689 39.2095 78.9742 39.0958 78.9056C38.9822 78.8369 38.8437 78.8038 38.6803 78.8038C38.517 78.8038 38.3583 78.8381 38.2045 78.9079C38.0506 78.9778 37.918 79.0737 37.8055 79.198C37.6931 79.3223 37.6149 79.4619 37.5723 79.6182L37.2941 80.6978C37.2468 80.8801 37.2432 81.0399 37.2823 81.1796C37.3214 81.3193 37.4019 81.4282 37.525 81.5063C37.6481 81.5844 37.8043 81.6235 37.9949 81.6235C38.1311 81.6235 38.2601 81.6046 38.382 81.5679C38.5039 81.53 38.614 81.4767 38.7123 81.4057C38.8105 81.3359 38.891 81.2518 38.955 81.1535H40.6477C40.4962 81.5099 40.2749 81.8212 39.9848 82.0852C39.6948 82.3503 39.348 82.5539 38.9443 82.6972C38.5418 82.8404 38.1015 82.9114 37.6244 82.9114C37.0621 82.9114 36.6052 82.8037 36.2524 82.5871L36.2512 82.5895Z" fill="#EFEEDF"/>
<path d="M41.5536 82.799C41.4293 82.715 41.3417 82.6013 41.2932 82.4605C41.2446 82.3184 41.2435 82.1622 41.2896 81.9917C41.3311 81.8236 41.4115 81.6685 41.5335 81.5265C41.6554 81.3844 41.7998 81.2732 41.9667 81.1915C42.1336 81.1098 42.3041 81.0684 42.4769 81.0684C42.6427 81.0684 42.7871 81.1098 42.9114 81.1915C43.0357 81.2732 43.1221 81.3856 43.1718 81.5288C43.2215 81.6721 43.2263 81.826 43.186 81.9929C43.1398 82.161 43.0558 82.3161 42.9327 82.4593C42.8096 82.6025 42.664 82.7162 42.4982 82.8002C42.3313 82.8843 42.1656 82.9269 41.9999 82.9257C41.827 82.9257 41.6791 82.8831 41.5536 82.799Z" fill="#EFEEDF"/>
</svg>
